<svg width="109" height="63" viewBox="0 0 109 63" fill="none" xmlns="http://www.w3.org/2000/svg">
<path d="M58.5 39.5L74 22L84.5 21.5L86.5 20L87.5 17.5L86.5 15L83.5 11L90.5 0.5C108.5 13.5 109.068 21.9505 92 32.5H74V50L72.5 51.5H59L58.5 50V39.5Z" fill="#FEBD5B"/>
<g filter="url(#filter0_d_102_3)">
<path d="M90.5 0.5H59L58 50.5L59 52H72.5L74.5 50.5V33H90C94 33.5 100.833 26.5 104 21.5V16C104 9.5 95.6667 3.66667 90.5 0.5Z" stroke="#FEBD5B" shape-rendering="crispEdges"/>
</g>
<g filter="url(#filter1_d_102_3)">
<path d="M37 0H50H51.5V35C46.7923 48.4878 42.631 54.0503 28 54.5C13.369 54.0503 9.20771 47.9878 4.5 34.5L4 0H20.5V32.5C27.1687 46.7301 30.7375 43.9496 37 32.5V0Z" fill="#FEBD5B"/>
</g>
<defs>
<filter id="filter0_d_102_3" x="53.4969" y="0" width="55.0031" height="60.5" filterUnits="userSpaceOnUse" color-interpolation-filters="sRGB">
<feFlood flood-opacity="0" result="BackgroundImageFix"/>
<feColorMatrix in="SourceAlpha" type="matrix" values="0 0 0 0 0 0 0 0 0 0 0 0 0 0 0 0 0 0 127 0" result="hardAlpha"/>
<feOffset dy="4"/>
<feGaussianBlur stdDeviation="2"/>
<feComposite in2="hardAlpha" operator="out"/>
<feColorMatrix type="matrix" values="0 0 0 0 0 0 0 0 0 0 0 0 0 0 0 0 0 0 0.25 0"/>
<feBlend mode="normal" in2="BackgroundImageFix" result="effect1_dropShadow_102_3"/>
<feBlend mode="normal" in="SourceGraphic" in2="effect1_dropShadow_102_3" result="shape"/>
</filter>
<filter id="filter1_d_102_3" x="0" y="0" width="55.5" height="62.5" filterUnits="userSpaceOnUse" color-interpolation-filters="sRGB">
<feFlood flood-opacity="0" result="BackgroundImageFix"/>
<feColorMatrix in="SourceAlpha" type="matrix" values="0 0 0 0 0 0 0 0 0 0 0 0 0 0 0 0 0 0 127 0" result="hardAlpha"/>
<feOffset dy="4"/>
<feGaussianBlur stdDeviation="2"/>
<feComposite in2="hardAlpha" operator="out"/>
<feColorMatrix type="matrix" values="0 0 0 0 0 0 0 0 0 0 0 0 0 0 0 0 0 0 0.25 0"/>
<feBlend mode="normal" in2="BackgroundImageFix" result="effect1_dropShadow_102_3"/>
<feBlend mode="normal" in="SourceGraphic" in2="effect1_dropShadow_102_3" result="shape"/>
</filter>
</defs>
</svg>
