<svg width="155" height="226" viewBox="0 0 155 226" fill="none" xmlns="http://www.w3.org/2000/svg">
<g filter="url(#filter0_d_8_5)">
<path d="M66.5 214L70 217.5H85L87 215.5L89 212.5V206H94L96 205L99.5 200.5V190.5H92V188.5H97.5L103 187.5L106.5 185.5L108 184.5L109 183.5L109.5 183V176L108.5 174L83.5 173.5L82.5 172V164H107L109.5 160L114 152L118 146L121.5 140.5L126 135L130.5 128.5L135 122L138 116.5L141.5 110.5L144.5 104L146.5 99.5L149 92L149.5 88L150 86L150.5 65L150 62.5L149.5 59.5L148.5 55.5L147.5 50.5H144.5L122.5 68L121.5 69.5L121 77.5L120.5 84L116 95L109.5 106.5L94.5 128L92 132L89.5 134H64L61 130L56 123L52.5 118L49 113L46.5 109.5L43.5 105L38.5 96L34.5 88L33.5 84V67L35 61.5L36 58L38 53.5L39.5 50.5H42.5L76.5 88.5H78.5L140 39L141 37L136.5 30.5L135 30L78.5 74.5H76.5L43 36H38.5L33.5 42L28 51.5L23.5 64L24 83L25 87.5L26.5 92L31.5 104L42.5 120L59.5 143.5H96L99.5 138L103.5 132L106 128L110.5 122L113 118L116 113.5L118.5 109.5L121.5 105.5L123.5 102L125.5 97.5L127 95L128 92.5L130.5 85.5L131 81.5L131.5 74L140.5 68V85.5L138 95L132 108.5L101.5 154H52.5L41 137L38 132L21.5 107L20 103.5L18.5 100L17 97L16 94L15.5 92L14.5 89L13.5 82V66L15 58.5L16 54.5L17 49.5L19 45.5L27.5 32.5L41 20L59.5 11L65.5 10H88.5L90.5 10.5L94 11.5L111 19V20.5L103.5 26H101.5L87 20.5H66.5L65.5 21L50.5 27.5V29L77.5 59L84.5 53.5L69 36L67.5 34.5L66.5 33V31.5L67.5 30.5H86.5L90 31L104.5 38.5L126.5 21.5V19L125 17.5L117.5 12.5L113 9.5L108 6.5L103.5 4.5L92.5 1.5L87.5 0.5H68L63.5 1.5L60.5 2L58 2.5L55.5 3.5L53.5 4L52 4.5L50 5.5L44 8L38 11L33 15L27.5 19.5L23 24L18 29.5L13.5 36.5L10.5 42L8 47L6 53L5.5 54.5L5 56L4.5 58L4 59.5V61.5V64V83.5L4.5 88.5V89L5 91L6 94.5L7.5 98.5L9 102.5L10 105L11.5 108.5L13 111.5L14 113L16 116L18 119.5L20 122.5L28.5 135L34.5 143.5L39.5 151L41.5 154L48 164H71L72.5 165V172L71 173.5H47.5L46.5 174V184L51 189H53.5L55 189.5L56 190.5V200L57.5 201L60 202L63 203L64.5 203.5L66 204L67 204.5L68.5 205H75H76H77V207H67L66.5 208V214Z" fill="#FEBD5B"/>
<path d="M66.5 214L70 217.5H85L87 215.5L89 212.5V206H94L96 205L99.5 200.5V190.5H92V188.5H97.5L103 187.5L106.5 185.5L108 184.5L109 183.5L109.5 183V176L108.5 174L83.5 173.5L82.5 172V164H107L109.5 160L114 152L118 146L121.5 140.5L126 135L130.5 128.5L135 122L138 116.5L141.5 110.5L144.5 104L146.5 99.5L149 92L149.5 88L150 86L150.5 65L150 62.5L149.5 59.5L148.5 55.5L147.5 50.5H144.5L122.5 68L121.5 69.5L121 77.5L120.5 84L116 95L109.5 106.5L94.5 128L92 132L89.5 134H64L61 130L56 123L52.5 118L49 113L46.5 109.5L43.5 105L38.5 96L34.5 88L33.5 84V67L35 61.5L36 58L38 53.5L39.5 50.5H42.5L76.5 88.5H78.5L140 39L141 37L136.5 30.5L135 30L78.5 74.5H76.5L43 36H38.5L33.5 42L28 51.5L23.5 64L24 83L25 87.5L26.5 92L31.5 104L42.5 120L59.5 143.5H96L99.5 138L103.5 132L106 128L110.5 122L113 118L116 113.5L118.5 109.5L121.5 105.5L123.5 102L125.5 97.5L127 95L128 92.5L130.5 85.5L131 81.5L131.5 74L140.5 68V85.5L138 95L132 108.5L101.5 154H52.5L41 137L38 132L21.5 107L20 103.5L18.5 100L17 97L16 94L15.5 92L14.5 89L13.5 82V66L15 58.5L16 54.5L17 49.5L19 45.5L27.5 32.5L41 20L59.5 11L65.5 10H88.5L90.5 10.5L94 11.5L111 19V20.5L103.5 26H101.5L87 20.5H66.5L65.5 21L50.5 27.5V29L77.5 59L84.5 53.5L69 36L67.5 34.5L66.5 33V31.5L67.5 30.5H86.5L90 31L104.5 38.5L126.5 21.5V19L125 17.5L117.5 12.5L113 9.5L108 6.5L103.5 4.5L92.5 1.5L87.5 0.5H68L63.5 1.5L60.5 2L58 2.5L55.5 3.5L53.5 4L52 4.5L50 5.5L44 8L38 11L33 15L27.5 19.5L23 24L18 29.5L13.5 36.5L10.5 42L8 47L6 53L5.5 54.5L5 56L4.5 58L4 59.5V61.5V64V83.5L4.5 88.5V89L5 91L6 94.5L7.5 98.5L9 102.5L10 105L11.5 108.5L13 111.5L14 113L16 116L18 119.5L20 122.5L28.5 135L34.5 143.5L39.5 151L41.5 154L48 164H71L72.5 165V172L71 173.5H47.5L46.5 174V184L51 189H53.5L55 189.5L56 190.5V200L57.5 201L60 202L63 203L64.5 203.5L66 204L67 204.5L68.5 205H75H76H77V207H67L66.5 208V214Z" stroke="#e39117"/>
</g>
<defs>
<filter id="filter0_d_8_5" x="0" y="0.5" width="154.5" height="225" filterUnits="userSpaceOnUse" color-interpolation-filters="sRGB">
<feFlood flood-opacity="0" result="BackgroundImageFix"/>
<feColorMatrix in="SourceAlpha" type="matrix" values="0 0 0 0 0 0 0 0 0 0 0 0 0 0 0 0 0 0 127 0" result="hardAlpha"/>
<feOffset dy="4"/>
<feGaussianBlur stdDeviation="2"/>
<feComposite in2="hardAlpha" operator="out"/>
<feColorMatrix type="matrix" values="0 0 0 0 0 0 0 0 0 0 0 0 0 0 0 0 0 0 0.25 0"/>
<feBlend mode="normal" in2="BackgroundImageFix" result="effect1_dropShadow_8_5"/>
<feBlend mode="normal" in="SourceGraphic" in2="effect1_dropShadow_8_5" result="shape"/>
</filter>
</defs>
</svg>
 